# xmcd CD database file
#
# Track frame offsets:
#	150
#	16895
#	31208
#	49218
#	65313
#	81100
#	99333
#	117805
#	137750
#	154375
#
# Disc length: 2234 seconds
#
# Revision: 2
# Processed by: cddbd v1.4b41PL1 Copyright (c) Steve Scherf et al.
# Submitted via: Feurio! 1.60 - http://www.feurio.com
#
DISCID=7808b80a,8308b80a
DTITLE=JACK DANIEL'S LOVERS - Per Non Crescere Mai
DYEAR=1900
DGENRE=
TTITLE0=Jack Daniel's Per Non Crescere Mai
TTITLE1=Grandi Peccatori
TTITLE2=Inferno
TTITLE3=30"
TTITLE4=Venerdì
TTITLE5=101 Club
TTITLE6=Ex 1993
TTITLE7=Dovrei Crederci Di Più
TTITLE8=Stare Senza Te
TTITLE9=Per Fare Ciò Che mi Va
EXTD=
EXTT0=
EXTT1=
EXTT2=
EXTT3=
EXTT4=
EXTT5=
EXTT6=
EXTT7=
EXTT8=
EXTT9=
PLAYORDER=
